PathFileType	4	(X/Y/Z)	C:/Users/beibeiliu/ov580/test_trc\sequence.36_training_dense_left.trc
DataRate	CameraRate	NumFrames	NumMarkers	Units	OrigDataRate	OrigDataStartFrame	OrigNumFrames
120	120	9	19	mm	120	111	165
Frame#	Time	ThumbCMC			ThumbMCP			ThumbIP			ThumbTip			IndexMCP			IndexPIP			IndexTip			MiddleMCP			MiddlePIP			MiddleTip			RingMCP			RingPIP			RingTip			PinkyMCP			PinkyPIP			PinkyTip			BackHand1			BackHand2			BackHand3	
		X0	Y0	Z0	X1	Y1	Z1	X2	Y2	Z2	X3	Y3	Z3	X4	Y4	Z4	X5	Y5	Z5	X6	Y6	Z6	X7	Y7	Z7	X8	Y8	Z8	X9	Y9	Z9	X10	Y10	Z10	X11	Y11	Z11	X12	Y12	Z12	X13	Y13	Z13	X14	Y14	Z14	X15	Y15	Z15	X16	Y16	Z16	X17	Y17	Z17	X18	Y18	Z18	
110	0.916667	-132.108	-2.90444	35.9833	-130.338	-24.5141	12.5133	-130.878	-33.0157	-6.34496	-130.088	-41.732	-23.3357	-123.906	5.01811	-32.0254	-128.787	-4.5772	-54.212	-131.211	-16.2967	-69.9687	-135.008	31.2202	-37.6945	-134.736	34.5364	-60.5857	-131.464	37.8955	-86.3244	-150.109	46.496	-26.6123	-148.705	54.7938	-44.2694	-145.401	65.7311	-60.0378	-169.356	54.4448	-12.3038	-170.292	65.174	-24.4787	-167.651	79.2586	-31.9949	-152.426	44.8627	15.569	-150.583	46.7049	41.2357	-128.325	28.0123	26.9085	
111	0.925	-131.07	-3.37205	33.7034	-132.687	-24.8947	19.5508	-129.536	-38.6264	1.31598	-126.078	-52.9787	-11.5814	-125.573	-1.39511	-32.945	-129.176	-10.8078	-52.3109	-134.333	-25.3994	-72.1563	-137.568	23.2572	-40.4084	-141.05	24.1746	-61.1898	-140.431	26.1891	-87.8685	-158.357	38.5305	-30.8414	-158.125	44.9419	-49.0136	-155.881	51.5355	-66.6587	-178.212	45.1681	-13.1341	-181.824	52.9279	-27.5072	-183.156	69.4182	-41.145	-152.647	38.7194	7.49153	-150.661	42.7613	36.6891	-132.871	27.8305	24.2976	
112	0.933333	-128.796	-0.518109	34.7053	-128.782	-25.2812	20.0334	-125.054	-40.0577	6.51324	-117.494	-56.7083	-2.26608	-126.827	-1.24334	-33.1661	-125.707	-14.8511	-54.1604	-127.947	-26.952	-74.6395	-149.951	19.3554	-39.7766	-145.802	15.212	-61.93	-147.545	15.1642	-85.9101	-168.816	26.2348	-36.5116	-171.177	27.5117	-54.2619	-171.166	29.6185	-73.1309	-192.002	28.4207	-23.1231	-196.539	27.1733	-34.7221	-205.926	34.9377	-51.9377	-163.756	35.8838	7.82099	-159.679	41.517	30.0352	-137.361	30.2224	17.7728	
113	0.941667	-131.544	3.91037	27.7844	-129.116	-19.1133	21.4718	-120.124	-37.579	10.1345	-110.095	-52.8058	1.98958	-132.563	4.95756	-35.7335	-128.086	-4.57522	-59.7697	-123.941	-12.833	-79.3277	-160.53	15.9217	-47.9995	-156.293	12.9747	-65.4413	-161.192	13.2265	-93.8208	-179.519	15.2135	-40.9827	-182.625	10.924	-57.9442	-188.524	11.0567	-79.6976	-202.414	11.3617	-22.4855	-212.743	2.82679	-38.2322	-222.499	-2.27273	-53.6826	-171.317	31.2527	0.670756	-175.025	41.373	26.7057	-147.156	32.2574	15.548	
114	0.95	-141.839	8.44738	27.1013	-133.066	-19.7841	14.814	-122.592	-35.8906	5.02318	-114.661	-49.6695	-0.381587	-139.18	11.0628	-39.2632	-133.146	4.48423	-61.6624	-131.416	1.83425	-80.0241	-165.064	14.9642	-47.3579	-168.573	12.8402	-72.9894	-168.143	14.6852	-90.7991	-191.161	8.75507	-44.359	-192.154	2.05344	-59.6667	-195.578	-2.71892	-79.3037	-207.132	1.55873	-24.6722	-212.457	-13.6966	-39.1216	-219.35	-31.1043	-49.0538	-185.306	27.2758	1.96282	-187.282	35.4604	21.0747	-160.87	33.5364	11.6879	
115	0.958333	-149.558	5.4595	21.1676	-141.22	-18.9133	14.1929	-127.553	-37.8281	1.17333	-120.371	-51.1666	-7.47953	-146.118	13.6766	-40.2458	-138.762	10.6825	-64.3461	-133.204	9.67344	-80.402	-176.66	15.9346	-50.3742	-178.628	14.6269	-75.4114	-177.03	16.334	-93.8764	-193.333	6.29741	-43.1036	-197.131	-3.60158	-68.4752	-198.016	-12.229	-84.5155	-214.048	-8.11541	-31.0104	-214.131	-26.9349	-38.7002	-203.461	-47.8665	-45.0797	-193.998	23.4295	-3.13457	-193.269	31.9605	20.746	-164.714	29.5219	8.80891	
116	0.966667	-154.335	0.516219	21.9909	-143.628	-26.3019	5.0806	-135.65	-41.0767	-4.81094	-132.188	-56.1926	-20.9265	-154.125	12.4515	-41.5819	-148.768	12.5898	-62.6871	-140.2	13.4627	-84.0892	-182.939	15.8913	-48.7789	-181.444	17.2419	-74.8553	-187.338	17.2098	-97.903	-200.914	5.26702	-44.4015	-200.302	-4.5806	-70.0509	-202.405	-17.174	-86.4484	-214.357	-11.0376	-34.6948	-214.356	-30.4917	-42.911	-201.367	-51.7132	-41.4273	-196.704	21.3548	-3.54456	-202.507	26.41	21.3043	-172.131	26.5471	11.1326	
117	0.975	-158.129	-2.51829	19.0491	-145.44	-26.6363	-0.643554	-142.298	-38.3522	-14.7671	-140.443	-51.8625	-31.5811	-164.439	19.4806	-45.0134	-156.583	21.8101	-66.3277	-152.92	24.1813	-87.8217	-192.441	20.8066	-47.0811	-196.026	22.7478	-73.0485	-199.315	18.7177	-97.8477	-205.733	8.76672	-45.2859	-206.613	1.25954	-67.6072	-204.196	-20.6351	-84.2623	-223.924	-8.4049	-32.6096	-218.277	-28.4629	-47.0772	-201.017	-47.2427	-44.7358	-205.722	17.5955	-3.54575	-204.057	19.0326	27.1086	-183.031	23.0196	9.39998	
118	0.983333	-166.862	1.73863	14.5047	-151.328	-17.062	-7.57694	-147.714	-26.9378	-24.9748	-139.247	-40.463	-41.4108	-180.464	29.8889	-40.7961	-179.085	36.9135	-64.8032	-179.448	39.7493	-85.0135	-206.729	24.6991	-42.8034	-211.323	27.5592	-70.158	-212.705	11.3366	-96.2891	-223.566	9.05794	-43.3585	-221.429	-0.642782	-65.4995	-207.549	-25.8528	-74.6649	-233.325	-9.71003	-28.9661	-229.491	-23.8523	-48.0854	-206.405	-38.6582	-48.7789	-219.001	12.7491	4.61944	-215.215	12.1346	31.1144	-190.24	22.1628	15.4557	
